<?xml version="1.0" encoding="UTF-8" standalone="no"?>
<!-- Created with Inkscape (http://www.inkscape.org/) -->

<svg
   width="512"
   height="512"
   viewBox="0 0 512 512"
   version="1.1"
   id="svg1"
   xmlns="http://www.w3.org/2000/svg"
   xmlns:svg="http://www.w3.org/2000/svg">
  <defs
     id="defs1" />
  <g
     id="layer1">
    <g
       id="g1"
       transform="translate(2.6824666,5.2596602)">
      <path
         id="path1-8"
         style="fill:#000000;stroke:#000000;stroke-width:34.8868;stroke-dasharray:none"
         d="m 256,76.056043 c -44.5609,4.24e-4 -80.68424,36.124637 -80.68359,80.685537 4.2e-4,44.56015 36.12345,80.68318 80.68359,80.6836 44.56014,-4.2e-4 80.68317,-36.12345 80.68359,-80.6836 C 336.68424,112.18068 300.5609,76.056467 256,76.056043 Z m 0,213.372667 c -48.5704,-6.8e-4 -89.17051,56.27052 -95.47625,130.3725 -0.46824,5.50255 3.84207,9.97906 9.36492,9.97906 h 172.22266 c 5.52285,0 9.83316,-4.47651 9.36492,-9.97906 C 345.17051,345.69923 304.5704,289.42803 256,289.42871 Z"
         transform="matrix(1.0714518,0,0,1.0714518,-79.633761,1.6103635)" />
      <path
         id="path1-8-2"
         style="fill:none;stroke:#000000;stroke-width:34.8868;stroke-dasharray:none"
         d="m 256,76.056043 c -44.5609,4.24e-4 -80.68424,36.124637 -80.68359,80.685537 4.2e-4,44.56015 36.12345,80.68318 80.68359,80.6836 44.56014,-4.2e-4 80.68317,-36.12345 80.68359,-80.6836 C 336.68424,112.18068 300.5609,76.056467 256,76.056043 Z m 0,213.372667 c -48.5704,-6.8e-4 -89.17051,56.27052 -95.47625,130.3725 -0.46824,5.50255 3.84207,9.97906 9.36492,9.97906 h 172.22266 c 5.52285,0 9.83316,-4.47651 9.36492,-9.97906 C 345.17051,345.69923 304.5704,289.42803 256,289.42871 Z"
         transform="matrix(1.0714518,0,0,1.0714518,37.685506,-42.108912)" />
    </g>
  </g>
</svg>
